Coordinates
version=1
nRows=16
nColumns=22
inDegrees=yes

Units are S.I. units (second, meters, Newtons, ...)
If the header above contains a line with 'inDegrees', this indicates whether rotational values are in degrees (yes) or radians (no).

endheader
time	pelvis_tilt	pelvis_list	pelvis_rotation	pelvis_tx	pelvis_ty	pelvis_tz	hip_flexion_r	hip_adduction_r	hip_rotation_r	knee_angle_r	ankle_angle_r	subtalar_angle_r	hip_flexion_l	hip_adduction_l	hip_rotation_l	knee_angle_l	ankle_angle_l	subtalar_angle_l	lumbar_extension	lumbar_bending	lumbar_rotation
      3.59000000	      0.15895100	      0.68579532	    177.96046593	      0.09443626	      1.02038324	     -0.18585083	      4.25023333	      5.10079004	     -5.51229142	    -14.42723525	     11.29875808	     -0.08455412	     13.70802646	     -2.96204894	      2.60756020	    -21.30139257	      9.77983999	      1.39367573	    -15.14523082	      0.67769680	      8.26186727
      3.60000000	      0.07928233	      0.78393687	    177.82541741	      0.09568500	      1.02042504	     -0.18643380	      4.22640721	      5.24010825	     -5.40123690	    -14.39983602	     11.20746120	     -0.11093220	     13.52284792	     -3.14815241	      2.12247985	    -21.96263434	     10.07390732	      1.38705465	    -15.15054402	      0.74064583	      8.28368739
      3.61000000	      0.00445648	      0.89399443	    177.69635731	      0.09688901	      1.02043767	     -0.18697746	      4.20443036	      5.38914167	     -5.30210010	    -14.37372014	     11.12499940	     -0.12783150	     13.34949039	     -3.35121295	      1.61702612	    -22.63664450	     10.37099657	      1.35419211	    -15.15253691	      0.81884271	      8.29390729
      3.62000000	     -0.06480570	      1.01458330	    177.57131491	      0.09802572	      1.02042740	     -0.18747644	      4.18293287	      5.54673302	     -5.20390166	    -14.34784022	     11.04547213	     -0.13714162	     13.18114361	     -3.56933153	      1.08815928	    -23.30723201	     10.66640622	      1.29544128	    -15.14882253	      0.91195364	      8.28319829
      3.63000000	     -0.12851680	      1.13846260	    177.45054346	      0.09909227	      1.02040083	     -0.18790767	      4.16307187	      5.70302966	     -5.10411053	    -14.32276380	     10.96984687	     -0.14040471	     13.01183156	     -3.78974590	      0.55551083	    -23.95820476	     10.95269800	      1.21197187	    -15.13924252	      1.01987084	      8.25818621
      3.64000000	     -0.18761982	      1.26515206	    177.33536990	      0.10007452	      1.02035715	     -0.18830134	      4.14418766	      5.85974999	     -5.01022655	    -14.30206453	     10.90123184	     -0.13920136	     12.83646393	     -4.01353959	      0.01812515	    -24.57447195	     11.22975175	      1.10708559	    -15.12244668	      1.13105837	      8.21932980
      3.65000000	     -0.24123058	      1.38836802	    177.22444214	      0.10095869	      1.02030239	     -0.18864013	      4.12771657	      6.00967148	     -4.91898413	    -14.28697333	     10.83790299	     -0.13543407	     12.64591906	     -4.22930641	     -0.51866757	    -25.12893770	     11.48838577	      0.98875441	    -15.09284793	      1.24322013	      8.16580851
      3.66000000	     -0.28990440	      1.50664410	    177.11407192	      0.10173307	      1.02024152	     -0.18892530	      4.11125518	      6.15068096	     -4.81984101	    -14.27553743	     10.77478871	     -0.13078994	     12.43277160	     -4.43452137	     -1.05794417	    -25.60153584	     11.72562620	      0.86274559	    -15.05137063	      1.35489485	      8.09907918
      3.67000000	     -0.33128965	      1.61887759	    177.01460988	      0.10236119	      1.02017725	     -0.18914163	      4.09582040	      6.28013121	     -4.74860770	    -14.26830038	     10.72582829	     -0.12795287	     12.18642353	     -4.62305998	     -1.59209188	    -25.95541160	     11.92805337	      0.75386277	    -14.98744205	      1.46739220	      8.01417730
      3.68000000	     -0.37730377	      1.71658386	    176.92463757	      0.10286315	      1.02012657	     -0.18930928	      4.05851198	      6.39204631	     -4.66636443	    -14.24158917	     10.66780866	     -0.12759226	     11.90286633	     -4.78529626	     -2.11768516	    -26.19777526	     12.08883866	      0.66086722	    -14.91979272	      1.56257138	      7.91835876
      3.69000000	     -0.41073988	      1.81514868	    176.86501580	      0.10325231	      1.02005101	     -0.18935912	      4.04408092	      6.49402758	     -4.66068460	    -14.24616311	     10.63985813	     -0.13284747	     11.59909394	     -4.92807130	     -2.60012868	    -26.30511017	     12.20779040	      0.62571540	    -14.83085800	      1.67377538	      7.79565390
      3.70000000	     -0.45026237	      1.89944243	    176.81081861	      0.10352992	      1.02000007	     -0.18933291	      4.00354516	      6.57819379	     -4.62509652	    -14.22553721	     10.59249521	     -0.14505588	     11.24521519	     -5.03760745	     -3.06409942	    -26.25941482	     12.27304061	      0.62809897	    -14.74411405	      1.77648215	      7.64881587
      3.71000000	     -0.50424900	      1.96407485	    176.77485797	      0.10372146	      1.01998157	     -0.18921472	      3.93397042	      6.63601134	     -4.59581713	    -14.18726762	     10.55246025	     -0.17338949	     10.83294141	     -5.09995138	     -3.46734433	    -26.05011008	     12.27843846	      0.68005397	    -14.67275821	      1.86437793	      7.47471848
      3.72000000	     -0.53687238	      2.02309939	    176.74878697	      0.10390524	      1.01991748	     -0.18900441	      3.90324265	      6.68102215	     -4.59546970	    -14.17865698	     10.51861631	     -0.21151435	     10.42087074	     -5.13384314	     -3.80397549	    -25.70901689	     12.23148907	      0.74100719	    -14.58540803	      1.95547309	      7.28450857
      3.73000000	     -0.55263829	      2.07337096	    176.72491964	      0.10412164	      1.01981567	     -0.18872237	      3.91078539	      6.71293001	     -4.59389986	    -14.20291709	     10.46902161	     -0.25743382	     10.01018598	     -5.13852332	     -4.07536463	    -25.24789997	     12.13507025	      0.78599291	    -14.49379041	      2.04490522	      7.07863080
      3.74000000	     -0.57222611	      2.12409224	    176.69998026	      0.10431827	      1.01970656	     -0.18838809	      3.90726859	      6.74352889	     -4.58170887	    -14.21550143	     10.42617166	     -0.32582438	      9.57395727	     -5.12637880	     -4.28489558	    -24.67252822	     12.02755391	      0.81112837	    -14.41289503	      2.13757294	      6.87508965
